<svg xmlns="http://www.w3.org/2000/svg" viewBox="0 0 2489.29 1196.19"><g id="Calque_2" data-name="Calque 2"><g id="Layer_1" data-name="Layer 1"><path d="M164.1,1178a18.2,18.2,0,0,1-17.78,18.14H19.25C8.89,1196.15,0,1188.57,0,1178V18.24C0,10.66,8.89,1.57,19.25,1.57H146.36c8.9,0,17.79,9.09,17.79,16.67Zm332.59,0a18.19,18.19,0,0,1-17.78,18.14H351.85c-10.36,0-19.2-7.58-19.2-18.14V18.24c0-7.58,8.84-16.67,19.2-16.67H479c8.89,0,17.79,9.09,17.79,16.67Zm332.6,0a18.19,18.19,0,0,1-17.78,18.14H684.39c-10.35,0-19.2-7.58-19.2-18.14V18.24c0-7.58,8.85-16.67,19.2-16.67H811.51c8.94,0,17.78,9.09,17.78,16.67Zm334.06,0a18.19,18.19,0,0,1-17.73,18.14H1018.5c-10.36,0-19.25-7.58-19.25-18.14V18.24c0-7.58,8.89-16.67,19.25-16.67h127.12c8.84,0,17.73,9.09,17.73,16.67ZM2471.56,0c10.31,0,17.73,9.2,17.73,18.24V149c0,10.66-7.37,19.76-17.73,19.76H1343.67c-7.38,0-16.22-9.1-16.22-19.76V18.24c0-9.1,8.9-18.24,16.22-18.24Zm0,343.56c10.31,0,17.73,9.14,17.73,18.24V492.5c0,10.61-7.37,19.76-17.73,19.76H1343.67c-7.38,0-16.22-9.15-16.22-19.76V361.8c0-9.15,8.9-18.24,16.22-18.24Zm0,341.94c10.31,0,17.73,9.15,17.73,18.24V834.4c0,10.76-7.37,19.9-17.73,19.9H1343.67c-7.38,0-16.22-9.14-16.22-19.9V703.74c0-9.19,8.9-18.24,16.22-18.24Zm0,341.94c10.31,0,17.73,9.2,17.73,18.25v130.75c0,10.66-7.37,19.75-17.73,19.75H1343.67c-7.38,0-16.22-9.09-16.22-19.75V1045.69c0-9.1,8.9-18.25,16.22-18.25Z"/></g></g></svg>