<svg xmlns="http://www.w3.org/2000/svg" xmlns:xlink="http://www.w3.org/1999/xlink" viewBox="0 0 1556.35 1750.89"><defs><style>.cls-1{fill:#2062af;}.cls-2{fill:#3c9cd7;}.cls-3{fill:#fff;}.cls-4{fill:url(#Dégradé_sans_nom_2);}.cls-5{fill:url(#Dégradé_sans_nom_2-2);}.cls-6{fill:url(#Dégradé_sans_nom_4);}.cls-7{opacity:0.05;isolation:isolate;}.cls-8{fill:url(#Dégradé_sans_nom_4-2);}</style><linearGradient id="Dégradé_sans_nom_2" x1="196.72" y1="1105.3" x2="196.72" y2="1186.1" gradientTransform="matrix(4.64, 0, 0, -4.64, -361.79, 6028.92)" gradientUnits="userSpaceOnUse"><stop offset="0.39" stop-color="#d1d3d4" stop-opacity="0"/><stop offset="1" stop-color="#d1d3d4"/></linearGradient><linearGradient id="Dégradé_sans_nom_2-2" x1="297.67" y1="1145.6" x2="297.67" y2="1229.59" xlink:href="#Dégradé_sans_nom_2"/><linearGradient id="Dégradé_sans_nom_4" x1="148.12" y1="1069.27" x2="342.19" y2="1069.27" gradientTransform="matrix(4.64, 0, 0, -4.64, -361.79, 6028.92)" gradientUnits="userSpaceOnUse"><stop offset="0" stop-color="#e8e7e5"/><stop offset="1" stop-color="#fff"/></linearGradient><linearGradient id="Dégradé_sans_nom_4-2" x1="139.19" y1="1209.03" x2="349.89" y2="1209.03" xlink:href="#Dégradé_sans_nom_4"/></defs><g id="Calque_2" data-name="Calque 2"><g id="Layer_1" data-name="Layer 1"><path class="cls-1" d="M1410.43,1580.65,778.17,1750.89,145.9,1580.65,0,0H1556.35Z"/><path class="cls-2" d="M778.17,128V1615.11l1.43.39,511.66-137.78L1409.36,128Z"/><path class="cls-3" d="M777.6,523.26,325.07,711.72l15,186.6L777.6,711.25l465.41-199,19.3-190.88L777.6,523.26Z"/><path class="cls-4" d="M325.07,711.72l15,186.6L777.6,711.25v-188Z"/><path class="cls-5" d="M1262.31,321.39,777.6,523.26v188l465.41-199Z"/><path class="cls-6" d="M325.77,711.72l15,186.6,671.32,2.14-15,248.79-220.9,62.19-212.36-53.62L551,1003.4H353.64l25.74,298.12,398.94,118,396.78-115.82,51.48-591.94Z"/><path class="cls-7" d="M777.6,711.72H325.07l15,186.6,437.52,1.39v-188Zm0,499.13-2.14.6-212.33-53.62-12.86-154.42H353l25.73,298.12,398.91,118V1210.85Z"/><path class="cls-8" d="M284.32,321.39h978L1243,512.27H307.91L284.32,321.39Z"/><path class="cls-7" d="M777.6,321.39H284.32l23.59,190.88H777.6V321.39Z"/></g></g></svg>