<svg xmlns="http://www.w3.org/2000/svg" viewBox="0 0 1766.69 2003.62"><defs><style>.cls-1{fill:#e44d26;}.cls-2{fill:#f16529;}.cls-3{fill:#ebebeb;}.cls-4{fill:#fff;}</style></defs><g id="Calque_2" data-name="Calque 2"><g id="Layer_1" data-name="Layer 1"><path class="cls-1" d="M1766.69,0l-161,1803.05L882.27,2003.62l-721.49-200.3L0,0Z"/><path class="cls-2" d="M883.35,1850.31,1468,1688.23,1605.49,147.44H883.35Z"/><path class="cls-3" d="M570.46,589.79H883.35V368.62H328.75L334,428l54.37,609.48H883.34V816.27H590.68ZM620.31,1148h-222l31,347.28,453.06,125.76,1-.28V1390.68l-1,.26-246.32-66.51L620.31,1148Z"/><path class="cls-4" d="M882.58,1037.45h272.35l-25.68,286.84-246.67,66.58V1621L1336,1495.31l3.32-37.37,52-582.27,5.4-59.39H882.58v221.17Zm0-448.2v.54h534.23l4.44-49.71L1431.33,428l5.28-59.34h-554V589.26Z"/></g></g></svg>