<svg xmlns="http://www.w3.org/2000/svg" viewBox="0 0 595.28 673.75"><defs><style>.cls-1{fill:#e6a329;}.cls-2{fill:#f1bf22;}.cls-3{fill:#fff;}.cls-4{fill:#ebebeb;}</style></defs><g id="Calque_2" data-name="Calque 2"><g id="Layer_1" data-name="Layer 1"><path class="cls-1" d="M595.28,0H0L55.81,605.17l241.8,68.58,241.8-68.58Z"/><path class="cls-2" d="M297.61,49.31V622.46L493.52,567,541.18,49.31Z"/><path class="cls-3" d="M453.46,123.55H152.24l-21,226.58.43-1.41H387.6l-8.34,95.86-81.65,23.5-82.86-23.87-5-58H134.58L145.3,502.13l152.31,43.24L450,502.13l21-227.55H199.37l3.48-75.82H391.29l2.81,43.44H470Z"/><path class="cls-4" d="M297.67,123.55H152.24l-21,226.58.43-1.41h166v-73.9H210L213.44,199h84.23V123.55ZM210,386.2H134.57L145.3,502.07l152.31,43.17V468.15l-82.86-23.94Z"/></g></g></svg>