<svg xmlns="http://www.w3.org/2000/svg" xmlns:xlink="http://www.w3.org/1999/xlink" viewBox="0 0 1559.3 1754.2"><defs><clipPath id="a"><rect x="1" y="101.4" width="1557.4" height="1557.4" fill="none"/></clipPath></defs><g clip-path="url(#a)"><path d="M111.7,880.1c0,264.4,153.6,492.9,376.4,601.2L169.5,608.2a665.3,665.3,0,0,0-57.8,271.9Zm1118.9-33.7c0-82.6-29.6-139.7-55.1-184.2-33.8-55.1-65.5-101.7-65.5-156.7,0-61.4,46.5-118.6,112.1-118.6,3,0,5.8.4,8.7.6C1111.9,278.6,953.6,212.1,779.7,212.1c-233.4,0-438.7,119.7-558.2,301.1,15.7.5,30.5.8,43,.8,69.9,0,178.1-8.5,178.1-8.5,36-2.1,40.2,50.8,4.2,55,0,0-36.2,4.3-76.4,6.4l243.2,723.6L759.8,852l-104-285.1c-36-2.1-70.1-6.4-70.1-6.4-36-2.1-31.8-57.1,4.2-55,0,0,110.3,8.5,176,8.5,69.8,0,178-8.5,178-8.5,36-2.1,40.3,50.8,4.3,55,0,0-36.3,4.3-76.5,6.4L1113.1,1285l66.7-222.7c28.9-92.4,50.8-158.7,50.8-215.9Z" fill="#00749a"/><path d="M791.4,938.5,591,1520.9a667,667,0,0,0,410.5-10.6,53.2,53.2,0,0,1-4.7-9.2Zm574.4-378.9a508.1,508.1,0,0,1,4.5,68.7c0,67.8-12.6,144-50.8,239.3l-204,589.9c198.6-115.8,332.2-330.9,332.2-577.4a664.9,664.9,0,0,0-81.9-320.5Z" fill="#00749a"/><path d="M779.7,101.4C350.3,101.4,1,450.7,1,880.1s349.3,778.7,778.7,778.7,778.7-349.3,778.7-778.7S1209,101.4,779.7,101.4Zm0,1521.7c-409.7,0-743-333.3-743-743s333.3-743,743-743,742.9,333.3,742.9,743-333.3,743-742.9,743Z" fill="#00749a"/></g></svg>